<svg id="Layer_1" xmlns="http://www.w3.org/2000/svg" xmlns:xlink="http://www.w3.org/1999/xlink" viewBox="0 0 910 239"><style>.st0,.st1{fill:#fff}.st1{clip-path:url(#SVGID_2_)}</style><path class="st0" d="M421.9 101.2h64v14.4h-64zM331.5 101.2h64v14.4h-64zM0 1.7v15.8h33.3v97.3h18.4V17.5h33.4V1.7zM194.7 114.8h-18.6V63.9H124v50.9h-18.5V1.8h18.4V48H176V1.8h18.6v113z"/><defs><path id="SVGID_1_" d="M0 0h910v239H0z"/></defs><clipPath id="SVGID_2_"><use xlink:href="#SVGID_1_" overflow="visible"/></clipPath><path class="st1" d="M246.2 69.6v45.2h-18.4V1.8h31.8c14.7 0 25.5 2.8 32.5 8.3 7.1 5.5 10.5 13.7 10.5 24.7 0 14-7.4 24-22 30.1l31.8 50.1h-20.8l-26.9-45.2h-18.5v-.2zm0-15.2H259c8.6 0 14.9-1.7 18.6-4.8 3.9-3.2 5.8-8 5.8-14.2 0-6.4-2-11-6.2-13.9-4.2-2.8-10.5-4.2-18.8-4.2h-12.2v37.1M529.6 114.8h-18.3V1.8h63.8v15.6h-45.5v35.3h42.8v15.6h-42.8zM699.3 58.2c0 18.4-4.6 32.7-13.9 42.9-9.3 10.2-22.3 15.2-39.1 15.2-17.1 0-30.1-5.1-39.3-15.2-9.3-10.2-13.7-24.5-13.7-43.1s4.6-33.1 13.9-42.9C616.4 5.1 629.4 0 646.5 0c16.9 0 29.9 5.1 38.9 15.2 9.3 10.1 13.9 24.6 13.9 43m-86.3 0c0 13.9 2.8 24.5 8.4 31.7 5.6 7.3 14 10.8 25.1 10.8 11.1 0 19.3-3.6 24.9-10.6 5.6-7.1 8.4-17.6 8.4-31.8 0-13.9-2.8-24.5-8.3-31.5-5.6-7.3-13.9-10.8-24.9-10.8-11 0-19.5 3.6-25.1 10.8-5.6 6.9-8.5 17.6-8.5 31.4M727 114.8V1.8h18.4v97.3h47.9v15.8H727zM908 57.2c0 18.6-5.2 32.8-15.6 42.8-10.5 9.8-25.2 14.9-44.7 14.9H816V1.8h35c18.1 0 32.1 4.8 41.9 14.7 10.2 9.6 15.1 23.3 15.1 40.7m-19.4.7c0-27.1-12.7-40.6-37.9-40.6h-16.1v82h13.2c27.2 0 40.8-13.8 40.8-41.4M421.9 2.3h64v14.4h-64zM421.9 50.2h60.9v14.4h-60.9zM331.5 2.3h64v14.4h-64zM331.5 50.2h60.9v14.4h-60.9zM40.7 183.8c3.3 2.6 5.3 6.3 6.1 10.8H40c-.4-2.9-1.8-5.1-3.9-6.6-2.1-1.7-4.7-2.4-7.9-2.4-2.3 0-4.4.6-6.3 1.5-1.9 1.1-3.4 2.6-4.5 4.8-1.1 2.2-1.8 4.8-1.8 8s.6 5.8 1.8 8c1.1 2.2 2.6 3.7 4.5 4.8 1.9 1.1 4 1.5 6.3 1.5 3.2 0 5.8-.8 7.9-2.4 2.1-1.7 3.4-3.9 3.9-6.6h6.8c-.8 4.5-2.8 8.2-6.1 10.8-3.3 2.6-7.5 4-12.5 4-3.7 0-7.2-.8-10-2.4s-5.2-4-6.8-6.9C9.7 207.6 9 204.1 9 200s.8-7.7 2.4-10.8c1.7-3.1 4-5.4 6.8-7.1s6.3-2.4 10-2.4c5 .1 9.2 1.5 12.5 4.1M93.3 182.3c3 1.7 5.3 4 7.1 7.1 1.7 3.1 2.5 6.6 2.5 10.8 0 4.2-.9 7.7-2.5 10.7-1.7 3.1-4.1 5.4-7.1 6.9-3 1.7-6.4 2.4-10.1 2.4-3.7 0-7.2-.8-10.1-2.4-3-1.7-5.3-4-7.1-6.9-1.8-3.1-2.5-6.6-2.5-10.7s.9-7.7 2.5-10.8c1.7-3.1 4.1-5.4 7.1-7.1 3-1.7 6.4-2.4 10.1-2.4 3.7-.1 7.2.7 10.1 2.4m-16.6 4.8c-2 1.1-3.5 2.6-4.8 4.8-1.3 2.2-1.9 4.8-1.9 8s.7 5.8 1.9 7.9c1.2 2.2 2.9 3.7 4.8 4.8 2 1.1 4.2 1.5 6.5 1.5s4.5-.6 6.5-1.5c2-1.1 3.5-2.6 4.8-4.8 1.2-2.2 1.9-4.8 1.9-7.9 0-3.2-.7-5.8-1.9-8s-2.9-3.7-4.8-4.8c-2-1.1-4.2-1.5-6.5-1.5s-4.5.4-6.5 1.5M153.5 184c2.9 3 4.2 7.2 4.2 12.7v22.8h-6.5v-22.3c0-4-1-6.9-3-9-2-2.1-4.7-3.2-8.2-3.2-3.5 0-6.4 1.2-8.6 3.5-2.2 2.3-3.2 5.7-3.2 10.1v20.8h-6.5v-39.3h6.5v9.3c1-3.2 2.8-5.6 5.3-7.4 2.5-1.8 5.5-2.5 8.8-2.5 4.7.1 8.3 1.7 11.2 4.5M210 184c2.9 3 4.2 7.2 4.2 12.7v22.8h-6.5v-22.3c0-4-1-6.9-3-9-2-2.1-4.7-3.2-8.2-3.2-3.5 0-6.4 1.2-8.6 3.5-2.2 2.3-3.2 5.7-3.2 10.1v20.8h-6.5v-39.3h6.5v9.3c1-3.2 2.8-5.6 5.3-7.4 2.5-1.8 5.5-2.5 8.8-2.5 4.7.1 8.5 1.7 11.2 4.5M270.5 201.3h-31.4c.1 4.5 1.4 7.8 3.9 10.1 2.4 2.2 5.4 3.4 8.8 3.4 3.2 0 5.8-.8 7.9-2.4 2.1-1.7 3.4-3.7 3.9-6.4h6.9c-.4 2.8-1.5 5.2-3.2 7.3-1.7 2.1-3.7 3.9-6.4 5-2.6 1.2-5.6 1.8-8.9 1.8-3.7 0-7.2-.8-10-2.4-2.9-1.7-5.2-4-6.8-6.9-1.7-3.1-2.4-6.6-2.4-10.7s.8-7.7 2.4-10.8c1.7-3.1 4-5.4 6.8-7.1 2.9-1.7 6.3-2.4 10-2.4 3.9 0 7.2.8 10 2.4 2.9 1.7 5.1 3.7 6.5 6.5 1.5 2.8 2.2 5.7 2.2 9 .1 1.4.1 2.6-.2 3.6m-7.7-10.4c-1.1-2-2.6-3.4-4.5-4.4-1.9-1-4-1.4-6.3-1.4-3.5 0-6.6 1.1-9 3.3-2.4 2.2-3.7 5.5-4 9.8h25.1c.3-2.9-.2-5.4-1.3-7.3M319.6 183.8c3.3 2.6 5.3 6.3 6.1 10.8h-6.8c-.4-2.9-1.8-5.1-3.9-6.6-2.1-1.7-4.7-2.4-7.9-2.4-2.3 0-4.4.6-6.3 1.5-1.9 1.1-3.4 2.6-4.5 4.8-1.1 2.2-1.8 4.8-1.8 8s.6 5.8 1.8 8c1.1 2.2 2.6 3.7 4.5 4.8 1.9 1.1 4 1.5 6.3 1.5 3.2 0 5.8-.8 7.9-2.4 2.1-1.7 3.4-3.9 3.9-6.6h6.8c-.8 4.5-2.8 8.2-6.1 10.8-3.3 2.6-7.5 4-12.5 4-3.7 0-7.2-.8-10-2.4s-5.2-4-6.8-6.9c-1.7-3.1-2.4-6.6-2.4-10.7s.8-7.7 2.4-10.8c1.7-3.1 4-5.4 6.8-7.1s6.3-2.4 10-2.4c5.1.1 9.2 1.5 12.5 4.1M362.9 213.9v5.7H358c-4 0-7.1-1-9-2.9-2-1.9-3-5.1-3-9.6v-21.3h-5.8v-5.6h5.8v-9.8h6.6v9.8h10.1v5.6h-10.1v21.4c0 2.5.4 4.3 1.4 5.2.9.9 2.5 1.4 4.8 1.4h4.1zM380.4 165.8c.8-.8 1.9-1.1 3.2-1.1 1.3 0 2.4.3 3.2 1.1.8.8 1.2 1.7 1.2 2.9s-.4 2.2-1.2 2.9c-.8.8-1.9 1.1-3.2 1.1-1.3 0-2.4-.3-3.2-1.1-.8-.8-1.2-1.7-1.2-2.9 0-1.1.3-2.1 1.2-2.9m6.4 53.8h-6.5v-39.3h6.5v39.3zM439.5 184c2.9 3 4.2 7.2 4.2 12.7v22.8h-6.5v-22.3c0-4-1-6.9-3-9-2-2.1-4.7-3.2-8.2-3.2-3.5 0-6.4 1.2-8.6 3.5-2.2 2.3-3.2 5.7-3.2 10.1v20.8h-6.5v-39.3h6.5v9.3c1-3.2 2.8-5.6 5.3-7.4 2.5-1.8 5.5-2.5 8.8-2.5 4.7.1 8.4 1.7 11.2 4.5M490 182.7c2.6 1.9 4.5 4.5 5.5 7.7v-10h6.5v40c0 3.6-.8 6.8-2.3 9.7-1.5 2.9-3.6 5-6.4 6.6-2.8 1.5-6 2.3-9.7 2.3-5.3 0-9.6-1.3-13-3.9-3.3-2.5-5.5-6.1-6.4-10.4h6.4c.8 2.6 2.2 4.7 4.3 6.2 2.1 1.5 4.8 2.2 8.2 2.2 3.5 0 6.5-1.1 8.8-3.4 2.3-2.3 3.5-5.4 3.5-9.5v-10.7c-1.1 3.2-2.9 5.7-5.5 7.7-2.6 1.9-5.8 2.9-9.7 2.9-3.5 0-6.6-.8-9.4-2.4-2.8-1.7-4.8-4-6.4-6.9-1.5-3.1-2.3-6.6-2.3-10.7s.8-7.7 2.3-10.8c1.5-3.1 3.6-5.4 6.4-7.1s5.8-2.4 9.4-2.4c3.9 0 7.1.9 9.8 2.9m-17.5 6.7c-2.4 2.5-3.6 6.1-3.6 10.6s1.2 8 3.6 10.6c2.4 2.5 5.6 3.9 9.6 3.9 2.5 0 4.8-.6 6.9-1.8 2-1.2 3.6-2.9 4.7-5.1 1.1-2.2 1.8-4.7 1.8-7.6s-.6-5.4-1.8-7.6c-1.1-2.2-2.8-3.9-4.7-5.1-2-1.2-4.3-1.8-6.9-1.8-4 .1-7.2 1.4-9.6 3.9M571.8 213.9v5.7H567c-4 0-7.1-1-9-2.9-2-1.9-3-5.1-3-9.6v-21.3h-5.8v-5.6h5.8v-9.8h6.6v9.8h10.1v5.6h-10.1v21.4c0 2.5.4 4.3 1.4 5.2.9.9 2.5 1.4 4.8 1.4h4zM621.1 184c2.9 3 4.2 7.2 4.2 12.7v22.8h-6.5v-22.3c0-4-1-6.9-3-9-2-2.1-4.7-3.2-8.2-3.2-3.5 0-6.4 1.2-8.6 3.5-2.2 2.3-3.2 5.7-3.2 10.1v20.8h-6.5v-53h6.5v23c1-3.2 2.8-5.6 5.3-7.4 2.5-1.8 5.5-2.5 8.8-2.5 4.7.1 8.4 1.7 11.2 4.5M681.6 201.3h-31.4c.1 4.5 1.4 7.8 3.9 10.1 2.4 2.2 5.4 3.4 8.8 3.4 3.2 0 5.8-.8 7.9-2.4 2.1-1.7 3.4-3.7 3.9-6.4h6.9c-.4 2.8-1.5 5.2-3.2 7.3-1.7 2.2-3.7 3.9-6.4 5-2.6 1.2-5.6 1.8-8.9 1.8-3.7 0-7.2-.8-10-2.4-2.9-1.7-5.2-4-6.8-6.9-1.7-3.1-2.4-6.6-2.4-10.7s.8-7.7 2.4-10.8c1.7-3.1 4-5.4 6.8-7.1s6.3-2.4 10-2.4c3.9 0 7.2.8 10 2.4s5 3.7 6.5 6.5 2.2 5.7 2.2 9c0 1.4-.1 2.6-.2 3.6m-7.9-10.4c-1.1-2-2.6-3.4-4.5-4.4-1.9-1-4-1.4-6.3-1.4-3.5 0-6.6 1.1-9 3.3-2.4 2.2-3.7 5.5-4 9.8H675c.4-2.9-.2-5.4-1.3-7.3M756.7 182.7c2.6 1.9 4.5 4.5 5.5 7.7v-23.7h6.5v53h-6.5v-10c-1.1 3.2-2.9 5.7-5.5 7.7-2.6 1.9-5.8 2.9-9.7 2.9-3.5 0-6.6-.8-9.4-2.4-2.8-1.7-4.8-4-6.4-6.9-1.5-3.1-2.3-6.6-2.3-10.7s.8-7.7 2.3-10.8c1.5-3.1 3.6-5.4 6.4-7.1s5.8-2.4 9.4-2.4c3.9-.2 7.1.7 9.7 2.7m-17.4 6.7c-2.4 2.5-3.6 6.1-3.6 10.6s1.2 8 3.6 10.6c2.4 2.5 5.6 3.9 9.6 3.9 2.5 0 4.8-.6 6.9-1.8 2-1.2 3.6-2.9 4.7-5.1 1.1-2.2 1.8-4.7 1.8-7.6s-.6-5.4-1.8-7.6c-1.1-2.2-2.8-3.9-4.7-5.1-2-1.2-4.3-1.8-6.9-1.8-4 .1-7.2 1.4-9.6 3.9M817.5 182.3c3 1.7 5.3 4 7.1 7.1 1.8 3.1 2.5 6.6 2.5 10.8 0 4.2-.9 7.7-2.5 10.7-1.7 3.1-4.1 5.4-7.1 6.9-3 1.7-6.4 2.4-10.1 2.4-3.7 0-7.2-.8-10.1-2.4-3-1.7-5.3-4-7.1-6.9-1.8-3.1-2.5-6.6-2.5-10.7s.9-7.7 2.5-10.8c1.8-3.1 4.1-5.4 7.1-7.1 3-1.7 6.4-2.4 10.1-2.4 3.8-.1 7.2.7 10.1 2.4m-16.6 4.8c-2 1.1-3.5 2.6-4.8 4.8-1.2 2.2-1.9 4.8-1.9 8s.7 5.8 1.9 7.9c1.2 2.2 2.9 3.7 4.8 4.8 2 1.1 4.2 1.5 6.5 1.5s4.5-.6 6.5-1.5c2-1.1 3.5-2.6 4.8-4.8 1.2-2.2 1.9-4.8 1.9-7.9 0-3.2-.7-5.8-1.9-8s-2.9-3.7-4.8-4.8c-2-1.1-4.2-1.5-6.5-1.5s-4.5.4-6.5 1.5M863.7 213.9v5.7h-4.8c-4 0-7.1-1-9-2.9-2-1.9-3-5.1-3-9.6v-21.3H841v-5.6h5.8v-9.8h6.6v9.8h10.1v5.6h-10.1v21.4c0 2.5.4 4.3 1.4 5.2.9.9 2.5 1.4 4.8 1.4h4.1zM904.7 183.3c2.6 2.3 4.3 5.4 5 9.4h-6.3c-.3-2.3-1.2-4.3-2.9-5.7-1.7-1.4-3.9-2.2-6.6-2.2-2.3 0-4.2.6-5.5 1.7-1.3 1.1-2 2.6-2 4.5 0 1.4.4 2.6 1.3 3.5.9.9 2 1.5 3.3 2 1.3.4 3.1 1 5.4 1.4 2.9.7 5.3 1.3 7.1 2.1 1.8.7 3.3 1.8 4.6 3.3 1.2 1.5 1.9 3.5 1.9 6.2 0 3.2-1.2 5.8-3.6 7.8-2.4 2-5.6 3-9.6 3-4.6 0-8.5-1.1-11.5-3.4-3-2.2-4.7-5.4-5.2-9.4h6.3c.2 2.4 1.3 4.3 3.1 5.8 1.9 1.4 4.3 2.2 7.3 2.2 2.2 0 4-.6 5.3-1.8 1.2-1.1 1.9-2.6 1.9-4.5 0-1.5-.4-2.8-1.3-3.6-.9-.9-2-1.7-3.4-2.1-1.3-.4-3.2-1-5.5-1.5-2.9-.7-5.3-1.3-6.9-2-1.8-.7-3.2-1.8-4.4-3.2-1.2-1.4-1.9-3.4-1.9-6 0-3.3 1.2-5.9 3.6-7.9 2.4-2 5.7-3.1 9.9-3.1 4.3 0 7.9 1.1 10.6 3.5"/></svg>